<?xml version="1.0" standalone="no"?>
<!DOCTYPE svg PUBLIC "-//W3C//DTD SVG 20010904//EN"
 "http://www.w3.org/TR/2001/REC-SVG-20010904/DTD/svg10.dtd">
<svg version="1.0" xmlns="http://www.w3.org/2000/svg"
 width="1067.000000pt" height="652.000000pt" viewBox="0 0 1067.000000 652.000000"
 preserveAspectRatio="xMidYMid meet">

<g transform="translate(0.000000,652.000000) scale(0.100000,-0.100000)"
fill="#fff" stroke="none">
<path d="M6840 6499 c-937 -97 -1786 -575 -2382 -1340 -127 -163 -263 -374
-348 -537 -16 -31 -33 -63 -38 -69 -6 -9 -35 13 -101 78 -597 578 -1393 793
-2177 590 -881 -230 -1579 -1013 -1743 -1956 -35 -203 -41 -312 -41 -721 l0
-394 5330 0 5330 0 0 453 c0 329 -4 490 -15 592 -107 1014 -585 1919 -1341
2541 -527 433 -1158 695 -1843 764 -121 12 -509 11 -631 -1z"/>
<path d="M90 830 l0 -831 603 4 c541 3 608 5 662 21 170 50 254 129 285 266
18 81 25 307 11 357 -17 61 -67 120 -138 163 l-63 38 25 16 c39 25 84 94 101
153 13 45 14 74 5 194 -6 78 -18 168 -27 200 -22 77 -76 139 -157 179 -125 61
-147 63 -754 67 l-553 4 0 -831z m1180 390 c84 -14 180 -60 203 -98 53 -91 -8
-191 -144 -233 -57 -18 -98 -19 -605 -19 l-544 0 0 180 0 180 513 0 c298 0
539 -4 577 -10z m185 -480 c104 -52 138 -117 100 -189 -23 -45 -71 -79 -142
-101 -62 -19 -91 -20 -649 -20 l-584 0 0 175 0 176 603 -3 603 -3 69 -35z"/>
<path d="M2383 1193 c3 -384 7 -480 20 -535 71 -294 228 -516 441 -623 l69
-35 246 0 c278 0 278 1 395 84 217 156 350 407 376 711 5 61 10 280 10 488 l0
377 -45 0 -44 0 -3 -437 c-3 -427 -4 -439 -25 -486 -72 -155 -224 -266 -440
-319 -126 -31 -323 -31 -448 0 -209 52 -363 163 -434 312 l-26 55 -3 438 -3
437 -45 0 -46 0 5 -467z"/>
<path d="M4670 830 l0 -830 655 0 655 0 0 215 0 215 -610 0 -610 0 0 615 0
615 -45 0 -45 0 0 -830z"/>
<path d="M6662 1193 c4 -465 5 -469 30 -564 79 -292 238 -505 450 -604 52 -24
59 -25 299 -25 l247 0 73 37 c55 28 99 63 170 133 108 106 169 201 218 335 62
171 63 188 68 693 l5 462 -46 0 -45 0 -3 -437 -3 -438 -27 -57 c-37 -79 -82
-132 -155 -184 -80 -58 -173 -99 -281 -126 -124 -31 -321 -31 -447 0 -196 49
-360 164 -427 300 l-33 67 -3 437 -3 438 -45 0 -46 0 4 -467z"/>
<path d="M8880 1445 l0 -215 390 0 390 0 0 -615 0 -615 45 0 45 0 0 615 0 615
395 0 395 0 0 215 0 215 -830 0 -830 0 0 -215z"/>
</g>
</svg>
